<svg width="127" height="48" viewBox="0 0 127 48" fill="none" xmlns="http://www.w3.org/2000/svg">
<g clip-path="url(#clip0_2030_74)">
<path d="M5.67148 8.16664C5.95836 8.4412 6.23556 8.72544 6.50924 9.0132C6.7134 9.22528 6.92108 9.42328 7.14548 9.61336C7.63388 10.0375 8.0862 10.4969 8.54204 10.9536C8.64236 11.0539 8.74268 11.1542 8.84388 11.2546C9.11756 11.5282 9.39212 11.8028 9.6658 12.0774C9.96236 12.373 10.258 12.6696 10.5546 12.9653C11.1345 13.5452 11.7144 14.1251 12.2944 14.705C12.7652 15.1758 13.236 15.6475 13.7076 16.1183C13.7745 16.1861 13.8423 16.253 13.9109 16.3216C14.0473 16.458 14.1837 16.5944 14.3201 16.7308C15.5988 18.0094 16.8765 19.2872 18.1543 20.5658C19.2508 21.6623 20.3464 22.7579 21.4428 23.8544C22.7171 25.1278 23.9904 26.4011 25.2647 27.6754C25.4002 27.8109 25.5357 27.9473 25.6721 28.0828C25.7724 28.1831 25.7724 28.1831 25.8745 28.2852C26.3453 28.756 26.8152 29.2268 27.286 29.6967C27.8598 30.2705 28.4336 30.8442 29.0073 31.418C29.2995 31.711 29.5916 32.0032 29.8847 32.2954C30.1531 32.5638 30.4206 32.8313 30.6881 33.0997C30.7849 33.1965 30.8817 33.2933 30.9785 33.3901C31.4863 33.8961 31.9791 34.4082 32.4437 34.9547C32.5053 35.0216 32.566 35.0894 32.6294 35.1589C33.3052 35.9016 33.4557 36.5308 33.4364 37.5217C33.3756 38.3577 32.962 39.0661 32.3364 39.6134C31.6156 40.159 30.7955 40.431 29.8917 40.3227C28.8463 40.1441 28.3112 39.6319 27.6204 38.8874C27.4788 38.7387 27.3371 38.59 27.1945 38.4422C27.1065 38.3506 27.0203 38.2591 26.934 38.1667C26.7123 37.9318 26.4852 37.7135 26.2388 37.505C25.7689 37.0958 25.3316 36.654 24.8916 36.2131C24.7965 36.1181 24.7015 36.0239 24.6064 35.9289C24.3477 35.6702 24.0881 35.4106 23.8294 35.1518C23.5496 34.8711 23.2697 34.5913 22.989 34.3114C22.4408 33.7641 21.8934 33.2158 21.3452 32.6676C20.8999 32.2223 20.4546 31.777 20.0093 31.3318C19.9451 31.2675 19.8817 31.2042 19.8166 31.139C19.6872 31.0106 19.5588 30.8812 19.4294 30.7527C18.2212 29.5445 17.0129 28.3354 15.8056 27.1271C14.7689 26.0905 13.7332 25.0547 12.6965 24.019C11.4927 22.8151 10.288 21.6113 9.08412 20.4066C8.95564 20.2781 8.82716 20.1496 8.69868 20.0211C8.60452 19.927 8.60452 19.927 8.50772 19.8302C8.06244 19.3849 7.61804 18.9405 7.17276 18.4961C6.63068 17.954 6.0886 17.411 5.54652 16.869C5.2702 16.5926 4.99388 16.3154 4.71668 16.0391C4.46324 15.7857 4.2098 15.5322 3.95724 15.2788C3.86572 15.1873 3.7742 15.0966 3.68268 15.0051C3.23476 14.5581 2.79652 14.1102 2.38644 13.6279C2.19196 13.4044 1.979 13.2038 1.76516 12.9987C1.06468 12.3114 0.679238 11.6858 0.648438 10.6834C0.671318 9.65912 1.02332 9.01584 1.72732 8.28984C2.78332 7.29896 4.56532 7.17136 5.67148 8.16664Z" fill="white"/>
<path d="M5.16405 20.5226C5.35413 20.6713 5.53805 20.8218 5.72021 20.9793C5.77389 21.0259 5.82757 21.0726 5.88301 21.1201C6.53421 21.6903 7.14317 22.301 7.75389 22.9135C7.88501 23.0446 8.01613 23.1749 8.14725 23.306C8.49925 23.6571 8.85037 24.0082 9.20149 24.3602C9.57109 24.7307 9.94069 25.0994 10.3103 25.469C10.9307 26.0894 11.5502 26.709 12.1697 27.3294C12.8852 28.0457 13.6006 28.7602 14.3161 29.4757C14.9329 30.0917 15.5498 30.7077 16.1658 31.3246C16.5328 31.6915 16.8997 32.0594 17.2676 32.4263C17.6125 32.7704 17.9575 33.1154 18.3016 33.4612C18.4274 33.587 18.5541 33.7138 18.68 33.8396C20.7093 35.8627 20.7093 35.8627 20.7621 37.1651C20.7418 38.1947 20.33 38.9814 19.6005 39.6995C18.8032 40.3542 17.866 40.4026 16.8681 40.3226C15.9485 40.0814 15.2401 39.2419 14.595 38.5793C14.3486 38.3258 14.0987 38.0838 13.8294 37.855C13.3551 37.4423 12.9133 36.9962 12.4689 36.5509C12.3739 36.4558 12.2789 36.3608 12.1829 36.2658C11.926 36.0088 11.669 35.7518 11.4129 35.4949C11.1428 35.2247 10.8726 34.9546 10.6025 34.6853C10.1493 34.2321 9.69605 33.7789 9.24373 33.3257C8.72101 32.803 8.19829 32.2802 7.67557 31.7575C7.22501 31.3078 6.77533 30.8582 6.32565 30.4076C6.05725 30.1392 5.78885 29.8708 5.52045 29.6033C5.26789 29.3507 5.01621 29.099 4.76453 28.8465C4.67213 28.7541 4.57973 28.6617 4.48821 28.5702C4.03589 28.1187 3.59061 27.6655 3.17701 27.1789C2.98957 26.9624 2.78629 26.7653 2.58037 26.5673C2.49589 26.4846 2.41141 26.4018 2.32693 26.3191C2.19669 26.1924 2.06645 26.0657 1.93621 25.9398C1.04741 25.0854 0.677809 24.4447 0.637329 23.1898C0.630289 22.3477 0.927729 21.7651 1.50149 21.1491C2.46245 20.2665 3.96197 19.845 5.16405 20.5226Z" fill="white"/>
<path d="M32.1083 8.00173C32.8915 8.64589 33.3543 9.33845 33.4943 10.3505C33.5453 11.2604 33.2602 11.9855 32.7076 12.693C32.4128 13.0151 32.103 13.3196 31.7897 13.6232C31.1579 14.2321 31.1579 14.2321 30.5648 14.8789C30.1098 15.4113 29.602 15.8962 29.1057 16.389C29.0019 16.492 28.8989 16.5949 28.796 16.6979C28.5452 16.9469 28.2944 17.196 28.0436 17.445C28.1588 17.7002 28.282 17.8806 28.48 18.0769C28.5328 18.1288 28.5856 18.1807 28.6402 18.2353C28.6965 18.2907 28.7537 18.3461 28.8118 18.4033C28.8708 18.4623 28.9297 18.5204 28.9904 18.5802C29.1788 18.7668 29.3671 18.9533 29.5563 19.139C29.7437 19.3238 29.9303 19.5086 30.1177 19.6943C30.2339 19.8096 30.35 19.924 30.4662 20.0384C30.8032 20.371 31.1192 20.716 31.4289 21.0741C31.5785 21.2466 31.736 21.4094 31.9006 21.5678C31.956 21.6233 32.0124 21.6778 32.0696 21.7341C32.184 21.8459 32.2992 21.9568 32.4136 22.0677C33.1264 22.7681 33.4978 23.4792 33.533 24.4912C33.4987 25.3782 33.1643 26.1465 32.5316 26.7713C31.8064 27.3802 31.0285 27.6381 30.0834 27.5967C29.3081 27.5096 28.8083 27.2209 28.2336 26.7132C28.1764 26.663 28.1184 26.6129 28.0594 26.5609C27.38 25.9581 26.7394 25.3166 26.0996 24.6733C25.9685 24.5422 25.8383 24.412 25.7072 24.2809C25.4352 24.0089 25.1642 23.737 24.8932 23.4651C24.5473 23.1175 24.2015 22.7708 23.8548 22.4241C23.5855 22.1557 23.3171 21.8864 23.0478 21.6162C22.9202 21.4886 22.7926 21.361 22.665 21.2325C22.4864 21.0539 22.3086 20.8753 22.13 20.6966C22.078 20.6447 22.027 20.5928 21.9733 20.54C21.0863 19.6459 20.3515 18.8671 20.355 17.5497C20.3664 15.8003 21.748 14.739 22.9123 13.5801C23.046 13.4472 23.1789 13.3134 23.3127 13.1805C23.5908 12.9025 23.8688 12.6253 24.1469 12.3481C24.5024 11.9943 24.8571 11.6397 25.2117 11.285C25.4863 11.0105 25.7617 10.7359 26.0363 10.4613C26.1674 10.3302 26.2985 10.2 26.4288 10.0689C26.6118 9.88669 26.7957 9.70365 26.9788 9.52149C27.0588 9.44141 27.0588 9.44141 27.1398 9.36045C28.6446 7.86621 30.0121 6.89205 32.1083 8.00173Z" fill="#13A255"/>
<path d="M5.16401 33.1952C5.47289 33.4442 5.75713 33.7144 6.04401 33.9872C6.16633 34.0919 6.28953 34.1966 6.41273 34.3005C6.76473 34.6085 7.06745 34.9464 7.36401 35.3072C7.41241 35.3626 7.46081 35.4172 7.51009 35.4744C8.02137 36.0913 8.21673 36.8331 8.18593 37.6304C8.06713 38.5298 7.69665 39.276 7.00321 39.8638C6.20417 40.4402 5.34529 40.6039 4.37201 40.4992C3.00449 40.1842 1.66513 38.7366 0.912729 37.5952C0.448089 36.7838 0.36273 35.9276 0.59857 35.0212C0.87665 34.2169 1.52345 33.5252 2.25297 33.0958C3.08545 32.7165 4.37113 32.6989 5.16401 33.1952Z" fill="#9F8154"/>
</g>
<path d="M46.7 35V12.952H58.412L58.06 15.384H49.74V22.904H56.94V25.304H49.74V35H46.7ZM72.249 35L70.585 29.464H62.233L60.569 35H57.497L64.569 12.952H68.409L75.449 35H72.249ZM62.969 27H69.849L66.425 15.48L62.969 27ZM85.9283 12.568C87.2509 12.568 88.3603 12.7387 89.2563 13.08C90.1736 13.4213 91.1016 13.976 92.0403 14.744L90.3763 16.696C89.0323 15.608 87.6136 15.064 86.1203 15.064C84.2856 15.064 82.8029 15.768 81.6723 17.176C80.5629 18.584 80.0083 20.8453 80.0083 23.96C80.0083 26.9893 80.5629 29.2293 81.6723 30.68C82.7816 32.1093 84.2536 32.824 86.0883 32.824C87.0269 32.824 87.8483 32.664 88.5523 32.344C89.2563 32.024 90.0029 31.576 90.7923 31L92.2963 32.92C91.6136 33.624 90.7389 34.2107 89.6723 34.68C88.6056 35.1493 87.3789 35.384 85.9923 35.384C84.2003 35.384 82.6003 34.9467 81.1923 34.072C79.8056 33.176 78.7176 31.8747 77.9283 30.168C77.1603 28.44 76.7763 26.3707 76.7763 23.96C76.7763 21.5493 77.1816 19.4907 77.9923 17.784C78.8029 16.056 79.9016 14.7547 81.2883 13.88C82.6749 13.0053 84.2216 12.568 85.9283 12.568ZM100.93 12.568C102.402 12.568 103.661 12.7813 104.706 13.208C105.751 13.6133 106.765 14.2533 107.746 15.128L106.082 16.984C105.25 16.3227 104.429 15.8427 103.618 15.544C102.829 15.224 101.975 15.064 101.058 15.064C99.906 15.064 98.9567 15.3307 98.21 15.864C97.4633 16.3973 97.09 17.176 97.09 18.2C97.09 18.84 97.218 19.384 97.474 19.832C97.73 20.2587 98.1993 20.6533 98.882 21.016C99.586 21.3787 100.599 21.7627 101.922 22.168C103.309 22.5947 104.461 23.0533 105.378 23.544C106.295 24.0347 107.031 24.7173 107.586 25.592C108.162 26.4453 108.45 27.5333 108.45 28.856C108.45 30.136 108.13 31.2667 107.49 32.248C106.871 33.2293 105.965 33.9973 104.77 34.552C103.597 35.1067 102.199 35.384 100.578 35.384C97.5273 35.384 95.0313 34.4347 93.09 32.536L94.754 30.68C95.65 31.4053 96.5567 31.96 97.474 32.344C98.3913 32.7067 99.4153 32.888 100.546 32.888C101.911 32.888 103.042 32.5573 103.938 31.896C104.834 31.2133 105.282 30.232 105.282 28.952C105.282 28.2267 105.143 27.6293 104.866 27.16C104.589 26.6693 104.109 26.232 103.426 25.848C102.765 25.464 101.794 25.08 100.514 24.696C98.2527 24.0133 96.5993 23.192 95.554 22.232C94.5087 21.272 93.986 19.9707 93.986 18.328C93.986 17.2187 94.274 16.2267 94.85 15.352C95.4473 14.4773 96.2687 13.7947 97.314 13.304C98.3807 12.8133 99.586 12.568 100.93 12.568ZM117.673 12.568C119.145 12.568 120.403 12.7813 121.449 13.208C122.494 13.6133 123.507 14.2533 124.489 15.128L122.825 16.984C121.993 16.3227 121.171 15.8427 120.361 15.544C119.571 15.224 118.718 15.064 117.801 15.064C116.649 15.064 115.699 15.3307 114.953 15.864C114.206 16.3973 113.833 17.176 113.833 18.2C113.833 18.84 113.961 19.384 114.217 19.832C114.473 20.2587 114.942 20.6533 115.625 21.016C116.329 21.3787 117.342 21.7627 118.665 22.168C120.051 22.5947 121.203 23.0533 122.121 23.544C123.038 24.0347 123.774 24.7173 124.329 25.592C124.905 26.4453 125.193 27.5333 125.193 28.856C125.193 30.136 124.873 31.2667 124.233 32.248C123.614 33.2293 122.707 33.9973 121.513 34.552C120.339 35.1067 118.942 35.384 117.321 35.384C114.27 35.384 111.774 34.4347 109.833 32.536L111.497 30.68C112.393 31.4053 113.299 31.96 114.217 32.344C115.134 32.7067 116.158 32.888 117.289 32.888C118.654 32.888 119.785 32.5573 120.681 31.896C121.577 31.2133 122.025 30.232 122.025 28.952C122.025 28.2267 121.886 27.6293 121.609 27.16C121.331 26.6693 120.851 26.232 120.169 25.848C119.507 25.464 118.537 25.08 117.257 24.696C114.995 24.0133 113.342 23.192 112.297 22.232C111.251 21.272 110.729 19.9707 110.729 18.328C110.729 17.2187 111.017 16.2267 111.593 15.352C112.19 14.4773 113.011 13.7947 114.057 13.304C115.123 12.8133 116.329 12.568 117.673 12.568Z" fill="white"/>
<defs>
<clipPath id="clip0_2030_74">
<rect width="33" height="33" fill="white" transform="translate(0.5 7.5)"/>
</clipPath>
</defs>
</svg>
